<?xml version="1.0" encoding="UTF-8" standalone="no"?><!DOCTYPE svg PUBLIC "-//W3C//DTD SVG 1.1//EN" "http://www.w3.org/Graphics/SVG/1.1/DTD/svg11.dtd"><svg width="100%" height="100%" viewBox="0 0 1080 1440" version="1.1" xmlns="http://www.w3.org/2000/svg" xmlns:xlink="http://www.w3.org/1999/xlink" xml:space="preserve" xmlns:serif="http://www.serif.com/" style="fill-rule:evenodd;clip-rule:evenodd;stroke-linejoin:round;stroke-miterlimit:2;"><g><path d="M440,780l0,120l-100,0l100,-120Z"/><path d="M790,470l0,500l-500,0l0,-500l500,0Zm-330,50l-140,0l0,235l140,0l0,-235Zm0,240l-140,0l0,160l140,0l0,-160Zm247.745,-240l-243.745,0l0,140l243.745,0l0,-140Z"/><path d="M700,530l0,120l-120,0l0,-120l120,0Zm-100,25.053l0,74.947l80,0l-80,-74.947Z"/></g></svg>