<?xml version="1.0" encoding="UTF-8" standalone="no"?>
<!DOCTYPE svg PUBLIC "-//W3C//DTD SVG 1.1//EN" "http://www.w3.org/Graphics/SVG/1.1/DTD/svg11.dtd">
<svg width="100%" height="100%" viewBox="0 0 419 973" version="1.1" xmlns="http://www.w3.org/2000/svg" xmlns:xlink="http://www.w3.org/1999/xlink" xml:space="preserve" xmlns:serif="http://www.serif.com/" style="fill-rule:evenodd;clip-rule:evenodd;stroke-linejoin:round;stroke-miterlimit:2;">
    <g transform="matrix(1,0,0,1,-330.585198,-134.352556)">
        <g>
            <g transform="matrix(-0.173663,-0,0,-1.561074,629.769594,3028.787502)">
                <rect x="1554.232" y="1472.092" width="168.558" height="363.288" style="fill:rgb(47,47,47);"/>
            </g>
            <g transform="matrix(-0.173663,-0,0,-1.554408,1019.32688,3016.553146)">
                <rect x="1554.232" y="1472.092" width="168.558" height="363.288" style="fill:rgb(47,47,47);"/>
            </g>
            <g transform="matrix(-0,0.173663,-0.989229,-0,2176.378712,-135.559522)">
                <rect x="1554.232" y="1472.092" width="168.558" height="363.288" style="fill:rgb(47,47,47);"/>
            </g>
            <g transform="matrix(-0.173663,-0,0,-0.956803,629.769594,2486.096005)">
                <rect x="1554.232" y="1472.092" width="168.558" height="363.288" style="fill:rgb(47,47,47);"/>
            </g>
            <g transform="matrix(-0.173663,-0,0,-0.984329,1019.32688,2526.617335)">
                <rect x="1554.232" y="1472.092" width="168.558" height="363.288" style="fill:rgb(47,47,47);"/>
            </g>
            <g transform="matrix(-0,0.173663,-0.991734,-0,2180.065109,807.682886)">
                <rect x="1554.232" y="1472.092" width="168.558" height="363.288" style="fill:rgb(47,47,47);"/>
            </g>
            <g transform="matrix(1,0,0,0.996739,10.510873,4.146613)">
                <path d="M460,160L460,1080" style="fill:none;"/>
            </g>
            <g transform="matrix(1.166667,0,0,1.025815,-90,-4.207855)">
                <rect x="480" y="163" width="120" height="467.921"/>
            </g>
            <g transform="matrix(0.920924,0,0,0.928779,-82.043494,491.608976)">
                <rect x="480" y="163" width="120" height="467.921"/>
            </g>
            <g transform="matrix(0.916667,0,0,0.928779,170,491.311494)">
                <rect x="480" y="163" width="120" height="467.921"/>
            </g>
            <g transform="matrix(1,0,0,0.996739,151.67889,3.521739)">
                <path d="M460,160L460,1080" style="fill:none;"/>
            </g>
            <g transform="matrix(1.000395,0,0,1,-0.142315,-20)">
                <path d="M359.858,660L720.142,660" style="fill:none;"/>
            </g>
        </g>
    </g>
</svg>
