<?xml version="1.0" encoding="UTF-8" standalone="no"?><!DOCTYPE svg PUBLIC "-//W3C//DTD SVG 1.1//EN" "http://www.w3.org/Graphics/SVG/1.1/DTD/svg11.dtd"><svg width="100%" height="100%" viewBox="0 0 1080 1440" version="1.1" xmlns="http://www.w3.org/2000/svg" xmlns:xlink="http://www.w3.org/1999/xlink" xml:space="preserve" xmlns:serif="http://www.serif.com/" style="fill-rule:evenodd;clip-rule:evenodd;stroke-linejoin:round;stroke-miterlimit:2;"><rect x="330.585" y="163.625" width="29.272" height="567.119" style="fill:#2f2f2f;"/><rect x="720.142" y="163.625" width="29.272" height="564.698" style="fill:#2f2f2f;"/><path d="M720.142,163.625l-359.375,-0l0,-29.272l359.375,0l0,29.272Z" style="fill:#2f2f2f;"/><rect x="330.585" y="730" width="29.272" height="347.595" style="fill:#2f2f2f;"/><rect x="720.142" y="720" width="29.272" height="357.595" style="fill:#2f2f2f;"/><path d="M720.142,1106.867l-360.285,0l0,-29.272l360.285,0l0,29.272Z" style="fill:#2f2f2f;"/><path d="M470.511,163.625l0,917" style="fill:none;"/><rect x="470" y="163" width="140" height="480"/><rect x="360" y="643" width="110.511" height="434.595"/><rect x="610" y="642.703" width="110" height="434.595"/><path d="M611.679,163l0,917" style="fill:none;"/><path d="M359.858,640l360.427,0" style="fill:none;"/></svg>